<svg xmlns="http://www.w3.org/2000/svg" xmlns:xlink="http://www.w3.org/1999/xlink" viewBox="0 0 554 427">
<defs>
<style>.af{fill:#1a1a1a;}.ag{fill:url(#aa);}.ah{fill:url(#ab);}.ai{opacity:0.8;}.aj{fill:#2d2d2d;}.ak{fill:url(#ac);}.al{fill:url(#ad);}.am{fill:#3d3d3d;}.an{fill:#4a9eff;}.ao{fill:#ff4a9e;}.ap{fill:#ff5f57;}.aq{fill:#ffbd2e;}.ar{fill:#27c93f;}.as{fill:#2d2d2d;}.at{fill:none;stroke:#4a9eff;stroke-miterlimit:10;stroke-width:2px;}.au{fill:#ffffff;}.av{fill:#e0e0e0;}</style>
<linearGradient id="aa" x1="277.1" x2="277.1" y1="12.4" y2="414.5" gradientUnits="userSpaceOnUse"><stop offset="0" stop-color="#333"/><stop offset="1" stop-color="#1a1a1a"/></linearGradient>
<linearGradient id="ab" x1="277.1" x2="277.1" y1="12.4" y2="414.5" gradientUnits="userSpaceOnUse"><stop offset="0" stop-color="#ffffff" stop-opacity="0.1"/><stop offset="1" stop-color="#ffffff" stop-opacity="0"/></linearGradient>
<linearGradient id="ac" x1="277.1" x2="277.1" y1="44.2" y2="390.7" gradientUnits="userSpaceOnUse"><stop offset="0" stop-color="#2a2a2a"/><stop offset="1" stop-color="#111"/></linearGradient>
<linearGradient id="ad" x1="277.1" x2="277.1" y1="44.2" y2="390.7" gradientUnits="userSpaceOnUse"><stop offset="0" stop-color="#ffffff" stop-opacity="0.05"/><stop offset="1" stop-color="#ffffff" stop-opacity="0"/></linearGradient>
<linearGradient id="ae" x1="277.1" x2="277.1" y1="44.2" y2="390.7" gradientUnits="userSpaceOnUse"><stop offset="0" stop-color="#ffffff" stop-opacity="0.05"/><stop offset="1" stop-color="#ffffff" stop-opacity="0"/></linearGradient>
</defs>
<rect class="af" height="427" width="554"/>
<rect class="ag" height="402.1" rx="10" ry="10" width="528.8" x="12.6" y="12.4"/>
<rect class="ah" height="402.1" rx="10" ry="10" width="528.8" x="12.6" y="12.4"/>
<g class="ai">
<path class="aj" d="M12.6,22.4v382.1c0,5.5,4.5,10,10,10h508.8c5.5,0,10-4.5,10-10V22.4c0-5.5-4.5-10-10-10H22.6c-5.5,0-10,4.5-10,10Z"/>
</g>
<rect class="ak" height="346.5" rx="10" ry="10" width="497.4" x="28.3" y="44.2"/>
<rect class="al" height="346.5" rx="10" ry="10" width="497.4" x="28.3" y="44.2"/>
<path class="am" d="M28.3,54.2v326.5c0,5.5,4.5,10,10,10h477.4c5.5,0,10-4.5,10-10V54.2c0-5.5-4.5-10-10-10H38.3c-5.5,0-10,4.5-10,10Z"/>
<g class="ai">
<path class="an" d="M246.7,215c0,2.1-1.7,3.8-3.8,3.8h-111.4c-2.1,0-3.8-1.7-3.8-3.8s1.7-3.8,3.8-3.8h111.4c2.1,0,3.8,1.7,3.8,3.8Z"/>
<path class="an" d="M228.1,230.3c0,2.1-1.7,3.8-3.8,3.8h-92.8c-2.1,0-3.8-1.7-3.8-3.8s1.7-3.8,3.8-3.8h92.8c2.1,0,3.8,1.7,3.8,3.8Z"/>
<path class="ao" d="M426.3,215c0,2.1-1.7,3.8-3.8,3.8H311c-2.1,0-3.8-1.7-3.8-3.8s1.7-3.8,3.8-3.8h111.4c2.1,0,3.8,1.7,3.8,3.8Z"/>
<path class="ao" d="M407.7,230.3c0,2.1-1.7,3.8-3.8,3.8h-92.8c-2.1,0-3.8-1.7-3.8-3.8s1.7-3.8,3.8-3.8h92.8c2.1,0,3.8,1.7,3.8,3.8Z"/>
</g>
<rect class="ap" height="23" rx="11.5" ry="11.5" width="23" x="42" y="19.4"/>
<rect class="aq" height="23" rx="11.5" ry="11.5" width="23" x="73.1" y="19.4"/>
<rect class="ar" height="23" rx="11.5" ry="11.5" width="23" x="104.3" y="19.4"/>
<path class="as" d="M28.3,347.1v23.6c0,5.5,4.5,10,10,10h477.4c5.5,0,10-4.5,10-10v-23.6H28.3Z"/>
<rect class="at" height="346.5" rx="10" ry="10" width="497.4" x="28.3" y="44.2"/>
<g class="ai">
<path class="au" d="M195.8,141.6l-37.4,19c-1.3,0.7-2.9,0.2-3.6-1.1-0.7-1.3-0.2-2.9,1.1-3.6l37.4-19c1.3-0.7,2.9-0.2,3.6,1.1,0.7,1.3,0.2,2.9-1.1,3.6Z"/>
<path class="au" d="M185.3,131.6c1.3-0.7,2.9-0.2,3.6,1.1,0.7,1.3,0.2,2.9-1.1,3.6l-37.4,19c-1.3,0.7-2.9,0.2-3.6-1.1-0.7-1.3-0.2-2.9,1.1-3.6l37.4-19Z"/>
<path class="av" d="M152,143.6l37.4,19c1.3,0.7,1.8,2.3,1.1,3.6-0.7,1.3-2.3,1.8-3.6,1.1l-37.4-19c-1.3-0.7-1.8-2.3-1.1-3.6,0.7-1.3,2.3-1.8,3.6-1.1Z"/>
<path class="av" d="M162.6,133.6c1.3,0.7,1.8,2.3,1.1,3.6-0.7,1.3-2.3,1.8-3.6,1.1l-37.4-19c-1.3-0.7-1.8-2.3-1.1-3.6,0.7-1.3,2.3-1.8,3.6-1.1l37.4,19Z"/>
<path class="au" d="M226.7,152.1h-41.9c-1.5,0-2.7-1.2-2.7-2.7s1.2-2.7,2.7-2.7h41.9c1.5,0,2.7,1.2,2.7,2.7s-1.2,2.7-2.7,2.7Z"/>
<path class="au" d="M226.7,141.5h-41.9c-1.5,0-2.7-1.2-2.7-2.7s1.2-2.7,2.7-2.7h41.9c1.5,0,2.7,1.2,2.7,2.7s-1.2,2.7-2.7,2.7Z"/>
<path class="au" d="M226.7,159.2h-41.9c-1.5,0-2.7-1.2-2.7-2.7s1.2-2.7,2.7-2.7h41.9c1.5,0,2.7,1.2,2.7,2.7s-1.2,2.7-2.7,2.7Z"/>
</g>
</svg>
